PathFileType	4	(X/Y/Z)	stereocamera_test1.trc
DataRate	CameraRate	NumFrames	NumMarkers	Units	OrigDataRate	OrigDataStartFrame	OrigNumFrames
28.773259820813234	28.773259820813234	25	15	mm	28.773259820813234	84	335
Frame#	Time	JOINT_NECK			JOINT_RIGHT_CLAVICLE			JOINT_LEFT_CLAVICLE			JOINT_RIGHT_SHOULDER			JOINT_LEFT_SHOULDER			JOINT_RIGHT_ELBOW			JOINT_LEFT_ELBOW			JOINT_LEFT_WRIST			JOINT_RIGHT_WRIST			JOINT_SPINE_3			JOINT_SPINE_2			JOINT_SPINE_1			JOINT_PELVIS			JOINT_RIGHT_HIP			JOINT_LEFT_HIP
		X1	Y1	Z1	X2	Y2	Z2	X3	Y3	Z3	X4	Y4	Z4	X5	Y5	Z5	X6	Y6	Z6	X7	Y7	Z7	X8	Y8	Z8	X9	Y9	Z9	X10	Y10	Z10	X11	Y11	Z11	X12	Y12	Z12	X13	Y13	Z13	X14	Y14	Z14	X15	Y15	Z15

84	1749651073.923000	148.502700	7.161096	866.671500	85.222190	1.276150	935.922300	222.632970	12.644932	878.495750	8.965021	-2.935067	959.318160	278.724970	16.375586	835.773350	-35.865106	-245.849200	982.673500	338.102160	-217.712760	800.235150	nan	nan	nan	-73.000870	-396.863300	990.725300	143.740520	-79.355130	847.971900	139.823050	-161.233070	812.074700	138.681680	-244.809760	805.958500	135.192140	-320.479800	783.847330	52.411440	-335.584300	820.062700	nan	nan	nan
85	1749651073.956000	150.064000	6.298348	883.471250	85.180660	0.916883	935.691000	222.426530	11.429817	877.596560	8.818585	-3.489986	960.633340	279.022840	16.494468	836.449150	-35.924826	-246.559200	982.931100	337.691630	-215.986040	800.931630	nan	nan	nan	-73.328370	-397.713420	990.168870	145.696340	-79.209400	845.850500	140.688670	-160.988780	810.792570	139.812160	-244.798230	805.972160	135.934960	-320.220300	783.249200	nan	nan	nan	nan	nan	nan
86	1749651073.990000	151.346790	5.690500	894.948100	85.160770	0.702396	935.499100	222.675250	12.925670	878.782750	9.388518	-4.070401	960.868100	279.091980	17.000080	836.087000	-35.561692	-244.827690	982.950500	338.034420	-215.070750	800.899270	nan	nan	nan	-75.063700	-393.493560	990.666700	144.708710	-81.458010	845.273500	139.470800	-161.439150	813.445900	138.275950	-244.798900	805.987600	134.508430	-320.693300	784.731750	nan	nan	nan	nan	nan	nan
87	1749651074.023000	152.296080	5.441129	901.499570	85.155085	0.703454	935.285300	222.485540	11.648789	877.757430	9.041235	-4.356787	962.950170	278.893200	17.058268	836.305200	-35.981400	-243.714480	982.731400	338.593160	-214.069110	801.466300	nan	nan	nan	-72.420470	-390.594480	991.654800	143.953350	-82.870215	845.002230	138.677760	-161.741820	815.405500	137.199940	-244.711850	805.985100	133.562370	-320.978100	785.761650	nan	nan	nan	nan	nan	nan
88	1749651074.057000	152.889270	5.275503	904.314340	85.147240	0.663981	935.080230	222.338780	10.657772	877.032940	8.709380	-5.189732	964.862760	278.749440	16.608015	835.571800	-36.296602	-244.016950	982.350600	339.029970	-213.179440	801.612100	nan	nan	nan	-72.054940	-387.491600	992.993400	143.463480	-83.748765	845.030300	140.104710	-161.487040	813.241400	138.875290	-244.733810	805.966140	135.004910	-320.554500	784.307800	nan	nan	nan	nan	nan	nan
89	1749651074.090000	153.182740	5.282253	904.825200	85.131800	0.714839	934.909160	222.603600	12.466833	878.342150	8.441258	-5.306527	965.037940	278.351370	17.090917	835.497100	-37.142858	-244.479060	982.250100	341.071250	-214.008390	801.285700	nan	nan	nan	-75.175130	-394.206970	998.341300	145.276870	-86.182560	842.878700	140.939520	-169.684130	810.411300	139.024060	-255.496950	798.646870	137.206140	-334.046300	776.202300	nan	nan	nan	nan	nan	nan
90	1749651074.124000	153.240430	5.237848	904.118500	85.109815	0.658304	934.895300	222.409410	11.279285	877.497200	8.860266	-5.343005	963.104960	277.903400	16.561061	835.113600	-38.363863	-246.074600	983.267550	342.253570	-213.395150	801.375600	nan	nan	nan	-77.172800	-397.953900	995.927930	144.385220	-85.620270	843.595400	141.579230	-168.844250	809.644460	140.078590	-251.796900	801.226000	137.447160	-329.034450	778.232700	nan	nan	nan	nan	nan	nan
91	1749651074.157000	151.573960	5.627021	888.128640	85.109280	0.652075	934.936050	222.271340	10.449097	876.889350	8.884929	-4.739299	962.472200	277.527500	15.795335	835.351200	-40.062310	-248.134260	984.892250	345.840100	-220.874640	799.126860	nan	nan	nan	nan	nan	nan	143.766630	-84.996164	844.507500	140.094920	-166.180490	812.858940	138.428840	-248.630670	803.391400	135.525390	-325.616060	782.405140	47.755383	-336.253100	817.517340	nan	nan	nan
92	1749651074.191000	151.774100	5.588666	891.854940	85.119290	0.720695	935.033100	219.845340	9.999409	877.426300	9.663695	-4.653811	960.861000	276.775800	15.579909	836.350600	-44.913440	-254.482920	986.832900	345.897020	-218.368460	799.593800	nan	nan	nan	nan	nan	nan	143.408640	-84.422700	845.389070	139.046010	-164.105650	815.143900	137.290310	-246.358780	804.987800	134.190200	-323.196950	785.309500	nan	nan	nan	nan	nan	nan
93	1749651074.224000	150.264900	6.265253	882.112800	85.116240	0.801429	935.089100	218.259470	9.815052	877.861200	10.266274	-4.260644	962.083940	275.575550	15.932783	836.518100	-46.775855	-252.543500	989.201900	347.876760	-222.250630	798.458640	nan	nan	nan	-102.032050	-402.360620	1005.132800	143.453600	-81.828840	847.546900	138.427660	-162.738470	816.526500	136.619420	-244.945350	805.923800	131.162790	-321.770730	787.079500	40.319383	-337.668930	827.320160	nan	nan	nan
94	1749651074.257000	150.777430	5.939037	888.350900	85.120270	0.761345	935.143800	217.751370	12.055799	879.875060	9.753178	-3.565535	962.676760	275.152560	16.234070	836.593570	-49.702020	-250.087230	992.404700	349.425300	-224.710140	797.977800	nan	nan	nan	-111.725420	-400.263800	999.519300	143.578320	-80.232640	848.981000	138.133930	-162.072080	817.196500	136.297050	-244.316940	806.371100	131.568200	-321.171220	787.839830	nan	nan	nan	nan	nan	nan
95	1749651074.291000	149.368700	7.295072	882.290800	85.294630	3.285989	937.260270	217.675550	13.635144	881.269450	8.920602	-2.217591	962.700000	275.104640	16.844153	837.263600	-55.400790	-249.522720	998.063700	350.404440	-224.942740	798.055400	nan	nan	nan	-122.338970	-393.392380	993.066900	143.733320	-79.328686	849.853900	138.051690	-161.787760	817.462300	136.192230	-244.096400	806.522970	132.103250	-318.890150	788.145840	40.438450	-336.764570	831.184100	nan	nan	nan
96	1749651074.324000	148.058550	7.913426	878.003000	85.240060	2.437025	936.599970	217.828410	14.605284	882.192730	8.467648	-2.123699	963.392900	274.679060	17.403334	838.195600	-62.561850	-255.983860	999.309240	351.822640	-224.716160	797.979300	nan	nan	nan	nan	nan	nan	143.859860	-78.938270	850.264250	138.098760	-161.753100	817.522470	136.249650	-241.980520	806.646600	132.635980	-317.571970	788.089400	41.717343	-336.558160	834.016260	nan	nan	nan
97	1749651074.358000	147.254480	7.792756	879.449400	82.596965	1.740083	936.820600	218.143790	15.084967	882.869660	7.271410	-2.748340	966.830300	274.474470	17.330348	839.345700	-76.370330	-268.741000	1001.936900	351.305400	-221.217540	798.017400	nan	nan	nan	nan	nan	nan	141.704070	-78.966570	851.657030	135.993240	-162.026050	818.569060	134.121020	-240.888450	807.391800	130.852310	-317.191200	788.625700	39.616406	-333.704050	828.083160	nan	nan	nan
98	1749651074.391000	146.063000	7.529557	876.269500	80.840390	1.269698	937.009800	218.145460	12.895003	881.849470	6.330934	-3.336638	973.612250	274.281000	17.176107	839.731000	-81.862750	-264.174800	1010.379000	349.542020	-215.421590	798.196700	nan	nan	nan	nan	nan	nan	140.297410	-79.111800	852.559400	134.661560	-162.275700	819.289270	132.806820	-242.604850	808.061060	129.735600	-317.260060	789.166750	40.090717	-335.200850	832.354960	nan	nan	nan
99	1749651074.425000	145.156410	6.533176	868.571040	82.483900	0.920013	936.404500	218.266230	11.269808	881.560100	7.254065	-3.821150	968.415440	274.344530	15.735298	840.804100	-87.576210	-256.112340	1017.533000	348.908900	-210.274000	797.471460	nan	nan	nan	nan	nan	nan	141.888780	-79.315520	852.449950	136.212630	-162.429170	819.018800	134.330720	-241.662600	807.770600	131.322490	-317.401530	788.968740	41.399308	-335.593220	837.228800	nan	nan	nan
100	1749651074.458000	144.190860	6.162301	864.014740	81.134500	0.721112	936.851860	218.409270	10.258704	881.722100	7.601032	-3.312886	973.819000	273.915560	14.644608	841.245000	-91.195980	-249.906600	1017.230200	349.787950	-207.670780	795.077560	nan	nan	nan	-186.816330	-388.714020	940.561060	143.210010	-79.556780	852.976500	137.427370	-162.541180	818.799100	135.563480	-241.120670	807.737770	132.597400	-317.754400	789.216600	43.779787	-334.823220	836.367370	221.145060	-317.161300	786.042330
101	1749651074.492000	143.406240	5.532786	860.396500	80.298744	0.648692	937.156440	218.604090	9.722650	882.217350	7.828807	-3.008172	974.735200	274.553900	13.298512	844.914100	-95.328110	-243.350460	1018.138800	352.021600	-207.919360	790.429530	nan	nan	nan	-193.387140	-380.573420	944.282950	144.223630	-79.798736	854.045570	138.268200	-162.627940	818.774000	136.391910	-240.837480	807.709500	135.661040	-315.883670	789.258700	47.916204	-333.321500	834.722640	225.520900	-317.103330	787.524160
102	1749651074.525000	143.333380	4.238620	859.477760	79.857220	0.534967	937.371550	218.379240	7.035002	880.871830	7.064575	-3.829554	976.893370	275.995000	11.549175	845.858100	-100.977320	-241.494420	1013.571000	352.850700	-207.037300	785.575870	nan	nan	nan	nan	nan	nan	144.757940	-82.315210	854.150800	138.802700	-162.816910	819.039760	136.880580	-240.830140	807.684900	135.509570	-315.161050	790.426400	47.941160	-328.488700	835.355000	221.140380	-323.107000	787.201340
103	1749651074.559000	144.335900	3.438920	859.544630	79.686895	0.721157	937.705000	218.218070	5.609065	880.136200	6.798455	-5.054325	978.866340	278.665840	11.097297	846.489970	-106.802810	-242.086500	1011.016600	353.594780	-207.039450	781.829800	nan	nan	nan	nan	nan	nan	145.063220	-83.790050	854.558940	139.069210	-162.723690	819.237350	137.156490	-240.747970	807.948000	133.032470	-314.890600	791.993260	46.934124	-325.770170	836.780850	219.884650	-324.113000	787.799400
104	1749651074.592000	144.389850	2.904445	861.096200	79.689830	0.762671	937.899350	218.170600	4.816011	880.036950	7.499619	-6.024957	977.443700	278.175150	10.937154	847.605350	-111.073986	-242.456880	1015.487900	355.543700	-206.215680	779.156150	nan	nan	nan	-207.505330	-356.369200	869.696860	145.215020	-84.725870	855.082150	139.167410	-163.389070	823.070800	137.276590	-240.892110	808.297460	133.452900	-316.921900	792.242800	46.853907	-325.377820	834.633200	220.951680	-323.640260	787.609760
105	1749651074.626000	145.433700	2.746642	862.645270	82.433120	0.867054	937.554060	218.605090	6.981805	882.247570	7.775115	-6.581709	974.301100	280.552600	11.179492	851.119100	-114.140040	-240.355120	1015.397300	357.877400	-206.566400	773.550200	nan	nan	nan	-212.236850	-354.826930	869.512200	145.290840	-85.124135	855.724400	139.181090	-163.156150	821.786500	137.304590	-240.998390	808.645100	133.898530	-316.433500	793.060400	45.819223	-325.944570	835.298400	223.531770	-323.332300	788.054600
106	1749651074.659000	146.033290	3.008336	863.650400	84.282435	0.763923	937.229040	218.983600	8.475229	884.004830	7.942378	-6.266207	973.572100	282.012600	11.458218	853.683530	-118.989810	-238.179120	1023.113800	360.505970	-206.136320	770.139300	nan	nan	nan	-210.024630	-336.890760	862.690450	145.310850	-85.375230	856.259050	139.183340	-163.165120	821.034700	137.313770	-243.484620	809.045850	134.206270	-318.325850	793.299000	45.251705	-328.540560	836.480140	225.933240	-324.764220	789.755940
107	1749651074.692000	147.041050	3.274038	867.777100	85.379230	0.726894	936.911170	219.260470	9.477258	884.995200	8.106504	-5.772650	972.490430	282.230080	11.511505	852.106450	-121.885955	-233.674940	1030.611900	367.208180	-216.091690	765.553400	nan	nan	nan	-210.251350	-322.631000	852.766900	145.373340	-83.124790	857.082250	139.212560	-163.210780	820.985300	135.001570	-243.024620	809.683900	132.222300	-317.726200	794.338500	43.645890	-327.532900	834.583000	223.954800	-321.869280	789.993500
108	1749651074.759000	148.844540	3.041372	870.137160	86.042460	0.828370	936.887900	221.906840	7.195205	881.184340	11.027982	-4.932716	972.481600	282.591370	10.313302	853.211300	-126.018290	-221.765740	1044.132100	381.921170	-211.849100	766.737700	nan	nan	nan	-206.359790	-286.103670	820.675730	145.381570	-83.941800	857.549400	139.338700	-163.260640	821.876470	136.027590	-242.245350	809.846300	130.558430	-317.113400	795.518800	43.055260	-327.992140	834.329250	221.518410	-321.113400	789.723100
